# xmcd
#
# Track frame offsets: 
#        150
#        12698
#        28429
#        44484
#        59889
#        85106
#        100525
#        115985
#        131646
#        147064
#        171037
#        184105
#        197173
#        213265
#        228846
#        248041
#        263549
#        279389
#        296216
#        326053
#
# Disc length: 4557 seconds
#
# Revision: 0
# Processed by: cddbd v1.5.2PL0 Copyright (c) Steve Scherf et al.
# Submitted via: ExactAudioCopy v1.0b3
#
DISCID=2e11cb14
DTITLE=Various Artist - X-Trance Vol. 2 - CD 2
DYEAR=1900
DGENRE=
TTITLE0=Crazy Frog - Popcorn (Radiomix)
TTITLE1=Danzel - Put Your Hands Up In The Air! (Radio Edit)
TTITLE2=Mylo - In My Arms (Tocadisco's Zwischen Den Stühlen Edit)
TTITLE3=DJ Tyson Vs. Village People - Y.M.C.A.
TTITLE4=Heiko and Maiko - Sonnenschein (Club Mix)
TTITLE5=Zoo Gang - I Like To Move It (Jens O. Radio Edit)
TTITLE6=Danielle - La Poupee (Radio Version)
TTITLE7=Springbreak - Shut Up (Cascada Radio Cut)
TTITLE8=2 Brothers On The 1st Floor - Time (Radio Mix)
TTITLE9=Danielle Paris - I Can't Stand It (Cascada Rmx)
TTITLE10=Ray Knox - The Trip (Radio Cut)
TTITLE11=Groovelikers - We Are Machines (Jens O. Radio Cut)
TTITLE12=Greatest Deejay - Greatest DJ (Radio Cut)
TTITLE13=Pitchers - Black Is Black (Radio Cut)
TTITLE14=Magic D. - Light Years 2 Go (Original Radio Cut)
TTITLE15=East Rockerz - Sound Of My Dreams (Radio Edit)
TTITLE16=Kay Stone - Alone (Mind One Vocal Radio Mix)
TTITLE17=Ronski Speed and Sebastian Sand - Sole Surviver (Ronski Speed E
TTITLE17=dit)
TTITLE18=Bad Habit Boys - Weekend Reloaded (Pulsedriver Rmx)
TTITLE19=Axwell and Sebastian Ingrosso - Together (Radio Edit)
EXTD=
EXTT0=
EXTT1=
EXTT2=
EXTT3=
EXTT4=
EXTT5=
EXTT6=
EXTT7=
EXTT8=
EXTT9=
EXTT10=
EXTT11=
EXTT12=
EXTT13=
EXTT14=
EXTT15=
EXTT16=
EXTT17=
EXTT18=
EXTT19=
PLAYORDER=
